<svg width="512" height="512" viewBox="0 0 512 512" fill="none" xmlns="http://www.w3.org/2000/svg">
<g clip-path="url(#clip0_1_7)">
<path d="M306.175 98.2195C309.442 97.8758 315.364 98.0347 318.765 98.0491L340.479 98.1598C373.15 98.336 406.228 95.5846 434.27 117.565C451.027 131.161 460.329 151.768 462.4 173.29C467.76 229.094 429.455 268.187 377.326 271.416C364.427 272.216 351.389 271.516 338.544 272.98C333.898 278.493 330.368 285.172 326.636 291.367C323.217 297.034 319.762 302.679 316.333 308.333L268.005 388.847C264.288 395.032 260.609 401.231 256.963 407.452C252.735 414.743 249.25 421.192 244.298 428C240.012 422.377 209.984 373.177 209.059 368.846C208.452 366.022 225.68 340.36 228.662 335.298C230.582 331.582 236.442 322.748 238.859 318.914L258.285 287.969L289.365 238.02C292.805 232.445 295.993 226.716 299.438 221.124C303.03 215.292 309.243 216.4 315.052 215.539C322.301 214.463 329.573 214.992 336.837 214.951L362.246 214.664C367.124 214.603 376.891 214.701 381.468 213.721C389.794 211.776 399.245 207.278 404.042 199.614C409.498 190.891 409.516 178.913 404.798 169.896C399.149 159.1 390.412 154.265 378.905 153.005C366.298 151.625 353.9 152.509 341.271 152.234C326.381 152.505 310.886 151.382 296.157 153.718C288.189 155.544 282.3 165.826 278.255 172.176C266.385 190.812 253.797 208.53 242.344 227.422C241.84 228.258 242.167 227.989 241.309 228.577L240.332 228.133C238.664 226.04 236.409 221.897 234.976 219.462C231.97 214.317 228.981 209.157 226.026 203.978C223.415 199.413 220.232 194.083 217.858 189.525C215.929 185.826 216.3 174.73 216.973 170.368C219.686 153.009 228.561 136.08 240.114 123.377C255.051 106.864 277.563 99.1418 298.979 98.3957C301.372 98.311 303.783 98.2821 306.175 98.2195Z" fill="#93C5FD"/>
<path d="M49.0002 99.6915C54.1783 100.178 64.7551 99.8465 70.2029 99.8648C89.4945 99.8532 107.236 102.078 124.38 111.834C137.971 119.568 141.711 126.423 149.499 139.671L161.304 159.673L204.94 233.257C210.126 241.921 219.886 256.122 223.406 264.715C224.946 268.487 203.458 299.375 200.401 304.208C195.02 311.958 189.084 322.206 183.812 329.295C180.722 324.531 177.193 317.963 174.272 312.945L153.136 276.512L90.7061 170.276L62.3634 122.649C60.1152 118.9 50.1034 102.713 49.0002 99.6915Z" fill="#3B82F6"/>
</g>
<defs>
<clipPath id="clip0_1_7">
<rect width="414" height="330" fill="white" transform="translate(49 98)"/>
</clipPath>
</defs>
</svg>
